<?xml version="1.0" encoding="UTF-8"?>
<svg width="113px" height="70px" viewBox="0 0 113 70" version="1.1" xmlns="http://www.w3.org/2000/svg" xmlns:xlink="http://www.w3.org/1999/xlink">
    <!-- Generator: Sketch 42 (36781) - http://www.bohemiancoding.com/sketch -->
    <title>theme-logo</title>
    <desc>Created with Sketch.</desc>
    <defs></defs>
    <g id="Logo" stroke="none" stroke-width="1" fill="none" fill-rule="evenodd">
        <g id="theme-logo" transform="translate(-1.000000, 0.000000)" fill="#FFFFFF">
            <g transform="translate(1.000000, 0.000000)">
                <path d="M6.483,64.59 C6.88900203,64.9446684 7.092,65.4859964 7.092,66.214 C7.092,67.222005 6.73733688,67.9383312 6.028,68.363 C5.31866312,68.7876688 4.32467306,69 3.046,69 L0.134,69 L0.134,59.326 L2.668,59.326 C5.33734668,59.326 6.672,60.1473251 6.672,61.79 C6.672,62.3593362 6.49933506,62.8236649 6.154,63.183 C5.80866494,63.5423351 5.38400252,63.7733328 4.88,63.876 C5.54266998,63.9973339 6.07699797,64.2353316 6.483,64.59 Z M1.982,63.302 L3.116,63.302 C3.6293359,63.302 4.03533184,63.1876678 4.334,62.959 C4.63266816,62.7303322 4.782,62.3920022 4.782,61.944 C4.782,61.477331 4.62566823,61.1506676 4.313,60.964 C4.00033177,60.7773324 3.51266998,60.684 2.85,60.684 L1.982,60.684 L1.982,63.302 Z M4.621,67.306 C4.98033513,67.1006656 5.16,66.7133362 5.16,66.144 C5.16,65.5933306 4.98966837,65.1966679 4.649,64.954 C4.30833163,64.7113321 3.84400294,64.59 3.256,64.59 L1.982,64.59 L1.982,67.614 L3.06,67.614 C3.74133674,67.614 4.26166487,67.5113344 4.621,67.306 Z M15.359,67.579 C15.0836653,68.0876692 14.6730027,68.4866652 14.127,68.776 C13.5809973,69.0653348 12.9253372,69.21 12.16,69.21 C11.0026609,69.21 10.1160031,68.9043364 9.5,68.293 C8.88399692,67.6816636 8.576,66.8626718 8.576,65.836 L8.576,59.326 L10.424,59.326 L10.424,65.738 C10.424,66.4193367 10.5663319,66.9279983 10.851,67.264 C11.1356681,67.6000017 11.5719971,67.768 12.16,67.768 C12.7573363,67.768 13.1983319,67.6000017 13.483,67.264 C13.7676681,66.9279983 13.91,66.4193367 13.91,65.738 L13.91,59.326 L15.772,59.326 L15.772,65.836 C15.772,66.4893366 15.6343347,67.0703308 15.359,67.579 Z M22.464,59.41 C22.9680025,59.606001 23.4393311,59.9046647 23.878,60.306 L22.94,61.37 C22.6039983,61.0806652 22.2633351,60.868334 21.918,60.733 C21.5726649,60.597666 21.1993353,60.53 20.798,60.53 C20.3499978,60.53 19.9883347,60.6303323 19.713,60.831 C19.4376653,61.0316677 19.3,61.3139982 19.3,61.678 C19.3,61.9206679 19.3536661,62.1213325 19.461,62.28 C19.5683339,62.4386675 19.7619986,62.5879993 20.042,62.728 C20.3220014,62.8680007 20.7373306,63.0219992 21.288,63.19 C22.2400048,63.4886682 22.9563309,63.8596644 23.437,64.303 C23.9176691,64.7463355 24.158,65.3926624 24.158,66.242 C24.158,66.8206696 24.0110015,67.3339978 23.717,67.782 C23.4229985,68.2300022 23.0006694,68.5799987 22.45,68.832 C21.8993306,69.0840013 21.2460038,69.21 20.49,69.21 C19.752663,69.21 19.0923363,69.0910012 18.509,68.853 C17.9256638,68.6149988 17.4240021,68.2906687 17.004,67.88 L17.984,66.788 C18.6933369,67.45067 19.514662,67.782 20.448,67.782 C20.9800027,67.782 21.4093317,67.6560013 21.736,67.404 C22.0626683,67.1519987 22.226,66.7973356 22.226,66.34 C22.226,66.0599986 22.1700006,65.8290009 22.058,65.647 C21.9459994,65.4649991 21.754668,65.3016674 21.484,65.157 C21.213332,65.0123326 20.8213359,64.8606675 20.308,64.702 C19.2813282,64.3846651 18.5393356,64.0020022 18.082,63.554 C17.6246644,63.1059978 17.396,62.5180036 17.396,61.79 C17.396,61.2579973 17.5359986,60.7913353 17.816,60.39 C18.0960014,59.9886647 18.4856642,59.6760011 18.985,59.452 C19.4843358,59.2279989 20.0513302,59.116 20.686,59.116 C21.3673367,59.116 21.9599975,59.213999 22.464,59.41 Z M25.74,69 L25.74,59.326 L27.602,59.326 L27.602,69 L25.74,69 Z M34.616,69 L31.298,61.174 C31.3820004,61.8646701 31.4449998,62.4899972 31.487,63.05 C31.5290002,63.6100028 31.55,64.2773295 31.55,65.052 L31.55,69 L29.87,69 L29.87,59.326 L32.208,59.326 L35.582,67.166 C35.5259997,66.7926648 35.4700003,66.3003364 35.414,65.689 C35.3579997,65.0776636 35.33,64.4686697 35.33,63.862 L35.33,59.326 L37.01,59.326 L37.01,69 L34.616,69 Z M41.126,60.698 L41.126,63.4 L44.234,63.4 L44.234,64.772 L41.126,64.772 L41.126,67.614 L44.948,67.614 L44.948,69 L39.278,69 L39.278,59.326 L44.892,59.326 L44.696,60.698 L41.126,60.698 Z M51.262,59.41 C51.7660025,59.606001 52.2373311,59.9046647 52.676,60.306 L51.738,61.37 C51.4019983,61.0806652 51.0613351,60.868334 50.716,60.733 C50.3706649,60.597666 49.9973353,60.53 49.596,60.53 C49.1479978,60.53 48.7863347,60.6303323 48.511,60.831 C48.2356653,61.0316677 48.098,61.3139982 48.098,61.678 C48.098,61.9206679 48.1516661,62.1213325 48.259,62.28 C48.3663339,62.4386675 48.5599986,62.5879993 48.84,62.728 C49.1200014,62.8680007 49.5353306,63.0219992 50.086,63.19 C51.0380048,63.4886682 51.7543309,63.8596644 52.235,64.303 C52.7156691,64.7463355 52.956,65.3926624 52.956,66.242 C52.956,66.8206696 52.8090015,67.3339978 52.515,67.782 C52.2209985,68.2300022 51.7986694,68.5799987 51.248,68.832 C50.6973306,69.0840013 50.0440038,69.21 49.288,69.21 C48.550663,69.21 47.8903363,69.0910012 47.307,68.853 C46.7236638,68.6149988 46.2220021,68.2906687 45.802,67.88 L46.782,66.788 C47.4913369,67.45067 48.312662,67.782 49.246,67.782 C49.7780027,67.782 50.2073317,67.6560013 50.534,67.404 C50.8606683,67.1519987 51.024,66.7973356 51.024,66.34 C51.024,66.0599986 50.9680006,65.8290009 50.856,65.647 C50.7439994,65.4649991 50.552668,65.3016674 50.282,65.157 C50.011332,65.0123326 49.6193359,64.8606675 49.106,64.702 C48.0793282,64.3846651 47.3373356,64.0020022 46.88,63.554 C46.4226644,63.1059978 46.194,62.5180036 46.194,61.79 C46.194,61.2579973 46.3339986,60.7913353 46.614,60.39 C46.8940014,59.9886647 47.2836642,59.6760011 47.783,59.452 C48.2823358,59.2279989 48.8493302,59.116 49.484,59.116 C50.1653367,59.116 50.7579975,59.213999 51.262,59.41 Z M59.102,59.41 C59.6060025,59.606001 60.0773311,59.9046647 60.516,60.306 L59.578,61.37 C59.2419983,61.0806652 58.9013351,60.868334 58.556,60.733 C58.2106649,60.597666 57.8373353,60.53 57.436,60.53 C56.9879978,60.53 56.6263347,60.6303323 56.351,60.831 C56.0756653,61.0316677 55.938,61.3139982 55.938,61.678 C55.938,61.9206679 55.9916661,62.1213325 56.099,62.28 C56.2063339,62.4386675 56.3999986,62.5879993 56.68,62.728 C56.9600014,62.8680007 57.3753306,63.0219992 57.926,63.19 C58.8780048,63.4886682 59.5943309,63.8596644 60.075,64.303 C60.5556691,64.7463355 60.796,65.3926624 60.796,66.242 C60.796,66.8206696 60.6490015,67.3339978 60.355,67.782 C60.0609985,68.2300022 59.6386694,68.5799987 59.088,68.832 C58.5373306,69.0840013 57.8840038,69.21 57.128,69.21 C56.390663,69.21 55.7303363,69.0910012 55.147,68.853 C54.5636638,68.6149988 54.0620021,68.2906687 53.642,67.88 L54.622,66.788 C55.3313369,67.45067 56.152662,67.782 57.086,67.782 C57.6180027,67.782 58.0473317,67.6560013 58.374,67.404 C58.7006683,67.1519987 58.864,66.7973356 58.864,66.34 C58.864,66.0599986 58.8080006,65.8290009 58.696,65.647 C58.5839994,65.4649991 58.392668,65.3016674 58.122,65.157 C57.851332,65.0123326 57.4593359,64.8606675 56.946,64.702 C55.9193282,64.3846651 55.1773356,64.0020022 54.72,63.554 C54.2626644,63.1059978 54.034,62.5180036 54.034,61.79 C54.034,61.2579973 54.1739986,60.7913353 54.454,60.39 C54.7340014,59.9886647 55.1236642,59.6760011 55.623,59.452 C56.1223358,59.2279989 56.6893302,59.116 57.324,59.116 C58.0053367,59.116 58.5979975,59.213999 59.102,59.41 Z M68.104,67.488 L67.894,69 L62.378,69 L62.378,59.326 L64.226,59.326 L64.226,67.488 L68.104,67.488 Z M75.426,59.704 C76.0606698,60.096002 76.5483316,60.6699962 76.889,61.426 C77.2296684,62.1820038 77.4,63.0919947 77.4,64.156 C77.4,65.2106719 77.2273351,66.1159962 76.882,66.872 C76.5366649,67.6280038 76.0466698,68.2066647 75.412,68.608 C74.7773302,69.0093353 74.030671,69.21 73.172,69.21 C72.3039957,69.21 71.5526698,69.014002 70.918,68.622 C70.2833302,68.229998 69.7933351,67.6560038 69.448,66.9 C69.1026649,66.1439962 68.93,65.2340053 68.93,64.17 C68.93,63.1246614 69.1026649,62.2216705 69.448,61.461 C69.7933351,60.7003295 70.2856635,60.1193353 70.925,59.718 C71.5643365,59.3166647 72.313329,59.116 73.172,59.116 C74.0400043,59.116 74.7913302,59.311998 75.426,59.704 Z M71.464,61.405 C71.071998,61.9883362 70.876,62.9099937 70.876,64.17 C70.876,66.5873454 71.6413257,67.796 73.172,67.796 C73.9186704,67.796 74.4856647,67.5066696 74.873,66.928 C75.2603353,66.3493304 75.454,65.4253397 75.454,64.156 C75.454,62.8959937 75.2603353,61.9766696 74.873,61.398 C74.4856647,60.8193304 73.9186704,60.53 73.172,60.53 C72.4253296,60.53 71.856002,60.8216637 71.464,61.405 Z M85.779,67.579 C85.5036653,68.0876692 85.0930027,68.4866652 84.547,68.776 C84.0009973,69.0653348 83.3453372,69.21 82.58,69.21 C81.4226609,69.21 80.5360031,68.9043364 79.92,68.293 C79.3039969,67.6816636 78.996,66.8626718 78.996,65.836 L78.996,59.326 L80.844,59.326 L80.844,65.738 C80.844,66.4193367 80.9863319,66.9279983 81.271,67.264 C81.5556681,67.6000017 81.9919971,67.768 82.58,67.768 C83.1773363,67.768 83.6183319,67.6000017 83.903,67.264 C84.1876681,66.9279983 84.33,66.4193367 84.33,65.738 L84.33,59.326 L86.192,59.326 L86.192,65.836 C86.192,66.4893366 86.0543347,67.0703308 85.779,67.579 Z M93.066,69 L89.748,61.174 C89.8320004,61.8646701 89.8949998,62.4899972 89.937,63.05 C89.9790002,63.6100028 90,64.2773295 90,65.052 L90,69 L88.32,69 L88.32,59.326 L90.658,59.326 L94.032,67.166 C93.9759997,66.7926648 93.9200003,66.3003364 93.864,65.689 C93.8079997,65.0776636 93.78,64.4686697 93.78,63.862 L93.78,59.326 L95.46,59.326 L95.46,69 L93.066,69 Z M103.328,59.403 C103.822669,59.5943343 104.284665,59.8766648 104.714,60.25 L103.706,61.3 C103.369998,61.0199986 103.050335,60.8193339 102.747,60.698 C102.443665,60.5766661 102.091335,60.516 101.69,60.516 C100.94333,60.516 100.332002,60.8146637 99.856,61.412 C99.3799976,62.0093363 99.142,62.9239938 99.142,64.156 C99.142,65.4440064 99.3309981,66.3726638 99.709,66.942 C100.087002,67.5113362 100.663329,67.796 101.438,67.796 C102.026003,67.796 102.539331,67.6700013 102.978,67.418 L102.978,64.898 L101.522,64.898 L101.326,63.526 L104.798,63.526 L104.798,68.258 C103.789995,68.8926698 102.656006,69.21 101.396,69.21 C100.04266,69.21 99.004337,68.780671 98.281,67.922 C97.5576631,67.063329 97.196,65.8080083 97.196,64.156 C97.196,63.1013281 97.3943314,62.1936705 97.791,61.433 C98.1876687,60.6723295 98.7196633,60.096002 99.387,59.704 C100.054337,59.311998 100.793996,59.116 101.606,59.116 C102.259337,59.116 102.833331,59.2116657 103.328,59.403 Z M41.7524317,44.0659742 C41.0542137,43.5388733 40.3851014,42.9752627 39.747934,42.3779817 L39.741082,42.3840115 L39.6357444,42.2721537 C38.9676922,41.6380226 38.3353621,40.9666216 37.7420849,40.2612815 L37.6831988,40.1987505 L37.6869257,40.1954708 C37.1198296,39.5164657 36.5888049,38.8062907 36.0967968,38.0678909 L36.0944866,38.0699223 L36.0675624,38.0239138 C35.56208,37.2617431 35.0981031,36.4696541 34.6788558,35.650871 L34.5509634,35.4323265 L34.5630348,35.421712 C32.9227162,32.1333958 32,28.4244539 32,24.5 C32,10.9690236 42.9690236,7.10542736e-15 56.5,7.10542736e-15 C70.0309764,7.10542736e-15 81,10.9690236 81,24.5 C81,38.0309764 70.0309764,49 56.5,49 C51.7996646,49 47.40848,47.6763675 43.6788529,45.3815091 L43,45 L41.7494444,44.0685685 L41.7524317,44.0659742 Z M108.508,60.698 L108.508,63.4 L111.616,63.4 L111.616,64.772 L108.508,64.772 L108.508,67.614 L112.33,67.614 L112.33,69 L106.66,69 L106.66,59.326 L112.274,59.326 L112.078,60.698 L108.508,60.698 Z M41.7524317,44.0659742 C42.3722945,44.533923 43.015097,44.9730967 43.6788529,45.3815091 L44.3673651,45.7684467 L57.0883687,34.7212594 C57.7138586,34.1780707 57.780577,33.2306696 57.2373884,32.6051797 C56.6941998,31.9796898 55.7467986,31.9129714 55.1213087,32.45616 L41.7524317,44.0659742 Z M36.0675624,38.0239138 C36.0772918,38.0385839 36.0870366,38.053243 36.0967968,38.0678909 L57.8856652,18.9087135 C58.5077894,18.3616733 58.568657,17.4138783 58.0216168,16.7917541 C57.4745765,16.1696299 56.5267815,16.1087624 55.9046573,16.6558026 L34.5630348,35.421712 C34.6012532,35.4983276 34.639861,35.5747148 34.6788558,35.650871 L36.0675624,38.0239138 Z M39.6357444,42.2721537 C39.6730298,42.307546 39.7104266,42.3428222 39.747934,42.3779817 L57.8861031,26.4163929 C58.5080146,25.8691108 58.5685136,24.9212922 58.0212316,24.2993807 C57.4739495,23.6774693 56.5261309,23.6169702 55.9042194,24.1642523 L37.6869257,40.1954708 C37.7052743,40.2174404 37.7236608,40.2393773 37.7420849,40.2612815 L39.6357444,42.2721537 Z"></path>
            </g>
        </g>
    </g>
</svg>